# xmcd
#
# Track frame offsets: 
#        150
#        13826
#        27698
#        45007
#        55185
#        80974
#        101802
#        118895
#        135969
#        150402
#        171642
#        192327
#
# Disc length: 2760 seconds
#
# Revision: 0
# Processed by: cddbd v1.5.2PL0 Copyright (c) Steve Scherf et al.
# Submitted via: ExactAudioCopy v0.99pb5
#
DISCID=a20ac60c
DTITLE=Graveyard - Innocence and Decadence
DYEAR=2015
DGENRE=Blues
TTITLE0=Magnetic Shunk
TTITLE1=The Apple and The Tree
TTITLE2=Exit 97
TTITLE3=Never Theirs To Sell
TTITLE4=Can't Walk Out
TTITLE5=Too Much Is Not Enough
TTITLE6=From A Hole In The Wall
TTITLE7=Cause and Defect
TTITLE8=Hard-Headed
TTITLE9=Far Too Close
TTITLE10=Stay For A Song
TTITLE11=The Hatch
EXTD=
EXTT0=
EXTT1=
EXTT2=
EXTT3=
EXTT4=
EXTT5=
EXTT6=
EXTT7=
EXTT8=
EXTT9=
EXTT10=
EXTT11=
PLAYORDER=
